<?xml version="1.0" encoding="UTF-8" standalone="no"?><!DOCTYPE svg PUBLIC "-//W3C//DTD SVG 1.1//EN" "http://www.w3.org/Graphics/SVG/1.1/DTD/svg11.dtd"><svg width="100%" height="100%" viewBox="0 0 667 667" version="1.1" xmlns="http://www.w3.org/2000/svg" xmlns:xlink="http://www.w3.org/1999/xlink" xml:space="preserve" xmlns:serif="http://www.serif.com/" style="fill-rule:evenodd;clip-rule:evenodd;stroke-linejoin:round;stroke-miterlimit:2;"><g><rect x="484.461" y="371.431" width="29.576" height="57.14" style="fill:#fff;"/><path d="M517.359,521.589l0.15,-0.065c-0,-0 -12.48,-22.757 -13.147,-37.549c-0.668,-14.792 -0.929,-44.311 -0.929,-44.311l-20.323,-0.588c0,0 -11.128,-1.839 -13.386,-11.073l0.224,-45.979c-0,-0 -0.03,-6.505 5.554,-11.394c5.584,-4.889 19.288,-17.237 23.146,-21.911c1.33,-1.611 1.402,-4.58 -0,-6.135c-5.401,-5.989 -23.403,-21.862 -32.404,-29.799c0,-0 -5.688,-19.979 15.739,-14.023l50.92,49.081c-0,-0 4.093,3.823 3.703,9.641l-0,75.374c-0,-0 -1.303,6.485 -5.555,7.011l0,38.564c0,-0 0.07,9.049 3.703,15.776c3.633,6.727 13.777,29.644 24.071,59.598c0,-0 5.785,24.105 -8.332,41.193c-14.117,17.087 -35.181,17.528 -35.181,17.528c0,0 -24.216,1.391 -39.81,-20.158c0,0 -9.808,-11.6 -10.183,-12.27c-0,-0 -2.044,-4.152 -5.555,-4.382l-12.036,-0.877l0,-22.787l1.983,-0.868l13.914,0.396c0,-0 11.86,0.852 16.896,7.479c5.037,6.628 12.899,18.874 19.758,22.153c6.859,3.279 17.389,8.631 28.449,-0.482c11.06,-9.112 3.25,-27.547 3.25,-27.547l-14.619,-31.596Zm-14.433,-138.191c-0.24,-9.122 -12.035,4.383 -12.035,4.383l-0,33.304c6.629,6.13 12.035,0 12.035,0c0,0 0.24,-28.564 0,-37.687Z" style="fill:#161616;"/><path d="M312.578,20.585c54.754,0 100.436,44.626 99.207,93.232c-0.985,38.97 -53.496,113.117 -86.225,141.714c-1.593,1.391 -0.941,0.937 -0,-0c7.002,-6.972 3.773,-3.226 -1.642,1.363c-0.672,0.57 3.18,-2.764 2.576,-2.183c-0.666,0.64 -5.833,5.223 -7.67,6.5c-2.038,1.417 -4.596,2.223 -6.246,2.223c-5.604,-0.003 -17.245,-13.389 -21.627,-17.822c-12.261,-12.404 -25.702,-26.351 -44.649,-54.355c-15.245,-22.532 -33.495,-54.181 -32.932,-77.44c1.244,-51.429 44.454,-93.232 99.208,-93.232Z" style="fill:#49a9ef;"/><ellipse cx="312.104" cy="112.825" rx="45.961" ry="41.966" style="fill:#fff;"/><path d="M178.101,607.628l-0.026,-343.727c-0.757,-13.933 6.233,-24.199 22.768,-29.944l63.115,0.328l32.983,35.028c12.235,12.538 23.297,11.05 33.579,0.217l32.898,-35.965l59.08,-0.456c14.267,4.703 22.581,13.7 24.514,27.301l0.822,348.457" style="fill:#0e5f9b;"/><path d="M484.461,612.456l-0,22.417c-0,6.186 -5.023,11.209 -11.209,11.209l-320.65,-0c-6.186,-0 -11.209,-5.023 -11.209,-11.209l0,-22.417c0,-6.186 5.023,-11.208 11.209,-11.208l320.65,-0c6.186,-0 11.209,5.022 11.209,11.208Z" style="fill:#0e5f9b;"/><path d="M405.497,297.46l-0,105.389c-0,7.565 -6.142,13.706 -13.707,13.706l-160.579,0c-7.564,0 -13.706,-6.141 -13.706,-13.706l0,-105.389c0,-7.565 6.142,-13.707 13.706,-13.707l160.579,0c7.565,0 13.707,6.142 13.707,13.707Z" style="fill:#fff;"/><path d="M377.296,319.244l0,62.757c0,4.221 -3.427,7.648 -7.648,7.648l-114.417,-0c-4.221,-0 -7.648,-3.427 -7.648,-7.648l0,-62.757c0,-4.221 3.427,-7.647 7.648,-7.647l114.417,-0c4.221,-0 7.648,3.426 7.648,7.647Z" style="fill:#0e5f9b;"/></g></svg>